# xmcd
#
# Track frame offsets:
#	150
#	17462
#	39851
#	61989
#	84548
#	104550
#	129426
#	145832
#	160200
#	180632
#	202217
#	217979
#
# Disc length: 3134 seconds
# Revision: 0
# Processed by: cddbd v1.5.2PL0 Copyright (c) Steve Scherf et al.
# Submitted via: dBpowerAMP V12.0
#
DISCID=a10c3c0c
DTITLE=Various Artist - Holy Hip Hop: Taking Gospel To The Streets, Vol. 12
DYEAR=2011
DGENRE=Hip Hop
TTITLE0=Hallel HP - Blowin Up
TTITLE1=Fro - Lord I'm Here
TTITLE2=Kingdom Sonz - Held Accountable
TTITLE3=HolyHotBoyz featuring D. Maub - Hype Enuff
TTITLE4=Royalty - Rep Christ
TTITLE5=B The Messenger - So Long
TTITLE6=Dice Gamble - Where My Christians At
TTITLE7=Mr. Testimony - Confirm That
TTITLE8=Least Of All - Ravens
TTITLE9=Fro - Jesus
TTITLE10=Dice Gamble - I Am Free
TTITLE11=Dice Gamble - Beat The Flo
EXTD=
EXTT0=
EXTT1=
EXTT2=
EXTT3=
EXTT4=
EXTT5=
EXTT6=
EXTT7=
EXTT8=
EXTT9=
EXTT10=
EXTT11=
PLAYORDER=
